<?xml version="1.0" standalone="no"?>
<!DOCTYPE svg PUBLIC "-//W3C//DTD SVG 20010904//EN"
 "http://www.w3.org/TR/2001/REC-SVG-20010904/DTD/svg10.dtd">
<svg version="1.0" xmlns="http://www.w3.org/2000/svg"
 width="497.000000pt" height="497.000000pt" viewBox="0 0 497.000000 497.000000"
 preserveAspectRatio="xMidYMid meet">

<g transform="translate(0.000000,497.000000) scale(0.100000,-0.100000)"
fill="#000000" stroke="none">
<path d="M2318 4950 c-555 -40 -1077 -263 -1491 -638 -875 -791 -1066 -2099
-455 -3112 367 -610 1001 -1042 1698 -1159 758 -127 1516 94 2083 607 979 886
1086 2397 241 3412 -402 484 -974 798 -1590 874 -160 20 -344 26 -486 16z
m608 -944 l94 -45 0 -70 c0 -102 2 -104 61 -74 l49 26 96 -39 c52 -21 100 -45
107 -53 9 -10 13 -174 15 -663 l2 -648 -55 0 -55 0 0 623 0 623 -35 17 c-20 9
-38 17 -40 17 -3 0 -5 -288 -5 -640 l0 -640 -25 0 -25 0 0 635 c0 349 -3 635
-7 635 -5 0 -36 -12 -70 -27 l-62 -28 -1 -607 0 -608 -25 0 -25 0 0 730 0 729
-42 20 c-24 11 -45 18 -47 16 -2 -3 -3 -340 -2 -750 l2 -745 -30 0 -31 0 0
740 c0 586 -3 740 -12 740 -7 -1 -247 -120 -533 -265 l-520 -264 -3 -475 -2
-476 -50 0 -50 0 1 493 c0 270 4 500 8 510 9 24 1155 606 1195 606 16 1 71
-19 122 -43z m-1335 -1828 c1 -24 1 -49 0 -55 -3 -21 4 -15 50 42 24 31 52 55
62 55 15 0 9 -12 -27 -54 -25 -29 -46 -57 -46 -61 0 -4 17 -28 38 -54 53 -63
57 -71 35 -71 -10 0 -39 26 -66 63 -27 34 -48 55 -47 47 2 -8 2 -36 1 -62 -1
-35 -5 -48 -15 -48 -12 0 -15 24 -18 120 -3 109 -1 120 15 120 13 0 17 -9 18
-42z m304 -80 c36 -100 40 -118 26 -118 -10 0 -22 14 -30 35 -12 33 -15 35
-57 35 -42 0 -46 -2 -60 -35 -8 -19 -20 -35 -28 -35 -10 0 0 35 33 120 30 79
51 119 60 118 7 -2 32 -56 56 -120z m215 102 c26 -26 26 -74 -1 -101 -20 -20
-20 -22 -3 -47 9 -15 26 -37 37 -49 l20 -23 -21 0 c-13 0 -32 16 -53 45 -18
25 -40 45 -51 45 -15 0 -18 -8 -18 -45 0 -33 -4 -45 -15 -45 -12 0 -15 20 -15
120 l0 120 50 0 c37 0 55 -5 70 -20z m240 10 c0 -5 -18 -10 -40 -10 l-40 0 0
-110 c0 -91 -3 -110 -15 -110 -12 0 -15 19 -15 110 l0 110 -40 0 c-22 0 -40 5
-40 10 0 6 38 10 95 10 57 0 95 -4 95 -10z m185 4 c62 -24 59 -189 -4 -224
-25 -13 -87 -13 -112 0 -41 22 -62 106 -40 162 18 46 49 68 96 68 24 0 51 -3
60 -6z m205 -80 l75 -86 3 86 c2 67 6 86 17 86 12 0 15 -21 15 -120 0 -66 -4
-120 -8 -120 -5 0 -42 38 -83 84 -41 47 -78 85 -82 85 -5 1 -7 -37 -5 -84 2
-63 0 -85 -9 -85 -10 0 -13 28 -13 104 0 57 -3 111 -6 120 -15 39 27 9 96 -70z
m404 70 c18 -18 21 -55 5 -71 -8 -8 -5 -19 11 -41 42 -57 0 -112 -87 -112
l-43 0 0 120 0 120 49 0 c32 0 55 -6 65 -16z m124 -29 c12 -25 25 -45 30 -45
4 0 18 20 32 45 14 25 30 45 37 45 18 0 17 -1 -22 -69 -29 -49 -35 -69 -35
-115 0 -43 -3 -56 -15 -56 -11 0 -15 13 -15 53 0 41 -8 67 -36 120 -31 59 -33
67 -17 67 13 0 27 -16 41 -45z m-310 -177 c-7 -19 -38 -22 -38 -4 0 10 9 16
21 16 12 0 19 -5 17 -12z m-1258 -437 c0 -171 3 -231 13 -238 6 -6 84 -33 172
-62 88 -28 322 -105 520 -170 l360 -119 3 409 2 409 24 0 c13 0 27 -7 30 -15
3 -9 5 -192 5 -406 -1 -215 1 -393 4 -395 9 -9 87 18 87 30 0 6 0 185 0 399
l0 387 25 0 25 0 0 -334 0 -334 63 -19 c34 -11 65 -18 70 -16 4 2 7 161 7 354
l0 349 25 0 25 0 0 -355 c0 -195 4 -355 9 -355 4 0 22 5 40 11 l31 11 0 344 0
344 50 0 c43 0 50 -3 55 -22 3 -13 5 -182 3 -376 -3 -315 -5 -355 -20 -366 -9
-6 -56 -20 -105 -30 -88 -18 -114 -16 -175 9 -15 6 -18 2 -18 -22 0 -46 -18
-59 -126 -93 l-102 -32 -233 76 c-605 197 -935 310 -951 324 -16 14 -18 40
-18 274 l0 258 50 0 50 0 0 -229z"/>
<path d="M1816 2126 c-22 -53 -21 -56 20 -56 32 0 35 2 28 23 -3 12 -12 33
-19 47 l-13 24 -16 -38z"/>
<path d="M2022 2148 c3 -50 4 -53 28 -50 68 7 63 102 -6 102 -24 0 -25 -2 -22
-52z"/>
<path d="M2420 2168 c-33 -54 -19 -145 25 -162 60 -23 105 18 105 94 0 63 -28
100 -76 100 -28 0 -38 -6 -54 -32z"/>
<path d="M3060 2159 c0 -39 1 -40 33 -37 27 3 33 7 35 32 4 31 -10 46 -45 46
-20 0 -23 -5 -23 -41z"/>
<path d="M3060 2050 c0 -47 2 -50 25 -50 23 0 65 31 65 48 0 23 -34 52 -61 52
-28 0 -29 -1 -29 -50z"/>
</g>
</svg>
